# xmcd
#
# Track frame offsets:
#	150
#	12522
#	24244
#	42420
#	65940
#	80641
#	93586
#	111624
#	127720
#	143484
#	162355
#	174808
#	193163
#	208404
#	225037
#
# Disc length: 3217 seconds
#
# Revision: 0
# Processed by: cddbd v1.5.2PL0 Copyright (c) Steve Scherf et al.
# Submitted via: EasyCDDAExtractor 10.0.2.1
#
DISCID=ca0c8f0f
DTITLE=Various Artist - Salsa Greats
DYEAR=1900
DGENRE=Samba
TTITLE0=Celia Cruz - Ritmo de mi Cuba
TTITLE1=Sonora Matancera - ¿Quién será?
TTITLE2=Panamá Connection - La Bilirrubina
TTITLE3=Banda Ibañez - El Venao
TTITLE4=Juan José Rodriguez - Así
TTITLE5=Tropicana - Caramelo
TTITLE6=Opa Opa - Dime por qué
TTITLE7=Panamá Connection - La gota fria
TTITLE8=Juan José Rodriguez - Procuro a poco
TTITLE9=Eddy McLean - Torero
TTITLE10=Celia Cruz - Poco a poco
TTITLE11=Panamá Connection - Ojalá que Ilueva café
TTITLE12=Los Angeles De La Salsa - El Baile de la botella
TTITLE13=Hermanos Quintero - Duele duele
TTITLE14=Benny Peregrina - El malecón
EXTD=
EXTT0=
EXTT1=
EXTT2=
EXTT3=
EXTT4=
EXTT5=
EXTT6=
EXTT7=
EXTT8=
EXTT9=
EXTT10=
EXTT11=
EXTT12=
EXTT13=
EXTT14=
PLAYORDER=
